<svg enable-background="new 0 0 338.11 71.43" viewBox="0 0 338.11 71.43" xmlns="http://www.w3.org/2000/svg"><g fill="#fff"><path d="m335.38 2.73v65.97h-332.65v-65.97zm2.73-2.73h-338.11v71.43h338.11z"/><path d="m16.7 15.05h-4.61v-2.55h12.18v2.55h-4.61v12.73h-2.96z"/><path d="m30.19 19.18c-1.55 0-2.95 1.29-2.95 4.56v4.04h-2.74v-11h2.75v2.01c.55-1.24 1.99-2.18 3.32-2.18.39 0 .87.07 1.2.17l-.17 2.66c-.4-.18-.93-.26-1.41-.26z"/><path d="m32.91 13.39c0-.94.72-1.68 1.7-1.68 1 0 1.75.74 1.75 1.68 0 .96-.74 1.7-1.75 1.7-.98 0-1.7-.74-1.7-1.7zm.33 3.38h2.75v11h-2.75z"/><path d="m38.04 16.77h2.75v1.27c.61-.85 1.81-1.44 3.28-1.44 3.17 0 5.11 2.31 5.11 5.68s-2.07 5.68-5.31 5.68c-1.27 0-2.45-.48-3.08-1.27v5.07h-2.75zm8.41 5.51c0-1.99-1.16-3.3-2.9-3.3-1.77 0-2.93 1.31-2.93 3.3s1.16 3.3 2.93 3.3c1.74-.01 2.9-1.32 2.9-3.3z"/><path d="m50.05 22.28c0-3.28 2.4-5.68 5.74-5.68s5.74 2.4 5.74 5.68-2.4 5.68-5.74 5.68-5.74-2.41-5.74-5.68zm8.71 0c0-1.97-1.2-3.3-2.97-3.3-1.79 0-2.97 1.33-2.97 3.3s1.18 3.3 2.97 3.3c1.77-.01 2.97-1.34 2.97-3.3z"/><path d="m63.46 12.32h2.75v15.46h-2.75z"/><path d="m67.96 13.39c0-.94.72-1.68 1.7-1.68 1 0 1.75.74 1.75 1.68 0 .96-.74 1.7-1.75 1.7-.98 0-1.7-.74-1.7-1.7zm.33 3.38h2.75v11h-2.75z"/><path d="m72.17 24.7 2.25-.92c.33 1.11 1.18 2.03 2.55 2.03 1.03 0 1.7-.55 1.7-1.24 0-2.07-6-.72-6-4.89 0-1.72 1.51-3.08 3.91-3.08 2.14 0 3.95 1.09 4.43 2.69l-2.23.94c-.31-1.05-1.27-1.59-2.16-1.59-.87 0-1.46.37-1.46 1 0 1.94 6.05.39 6.05 4.89 0 1.9-1.7 3.43-4.24 3.43-2.66-.01-4.25-1.64-4.8-3.26z"/><path d="m82.88 20.29h7.03v2.36h-7.03z"/><path d="m92.75 12.49h6.16c3.1 0 5.09 1.83 5.09 4.67 0 2.82-1.99 4.65-5.09 4.65h-3.19v5.96h-2.97zm5.89 6.77c1.48 0 2.38-.79 2.38-2.1 0-1.33-.9-2.12-2.38-2.12h-2.93v4.21h2.93z"/><path d="m114.02 21.08v6.7h-2.66v-1.59c-.61 1.07-1.94 1.77-3.3 1.77-2.16 0-3.67-1.4-3.67-3.28 0-2.16 1.64-3.32 4.91-3.67l2.05-.2v-.11c0-1.24-.85-2.01-2.18-2.01-1.2 0-2.05.74-2.18 1.92l-2.45-.44c.35-2.18 2.29-3.58 4.63-3.58 2.88.01 4.85 1.56 4.85 4.49zm-2.67 1.94v-.24l-2.1.24c-1.46.17-2.21.79-2.21 1.57 0 .76.61 1.33 1.62 1.33 1.71 0 2.69-1.29 2.69-2.9z"/><path d="m121.77 19.18c-1.55 0-2.95 1.29-2.95 4.56v4.04h-2.75v-11h2.75v2.01c.55-1.24 1.99-2.18 3.32-2.18.39 0 .87.07 1.2.17l-.17 2.66c-.39-.18-.92-.26-1.4-.26z"/><path d="m128.87 22.93-1.29 1.27v3.58h-2.77v-15.46h2.77v8.36l4.15-3.91h3.49l-4.48 4.35 4.83 6.66h-3.32z"/><path d="m137.61 14.04h-2.23v-1.55h6.27v1.55h-2.23v6.09h-1.81zm4.78-1.55h1.99l2.18 5.09 2.16-5.09h1.99v7.64h-1.66v-4.3l-1.86 4.3h-1.29l-1.86-4.3v4.3h-1.66v-7.64z"/></g></svg>