<?xml version="1.0" encoding="utf-8"?>
<!-- Generator: Adobe Illustrator 25.3.0, SVG Export Plug-In . SVG Version: 6.00 Build 0)  -->
<svg version="1.1" id="Layer_1" xmlns="http://www.w3.org/2000/svg" xmlns:xlink="http://www.w3.org/1999/xlink" x="0px" y="0px"
	 viewBox="0 0 127.28 18.41" style="enable-background:new 0 0 127.28 18.41;" xml:space="preserve">
<style type="text/css">
	.st0{fill:#ffffff;}
</style>
<g>
	<path class="st0" d="M4.23,3.07H0V0.72h11.19v2.35H6.96v11.69H4.23V3.07z"/>
	<path class="st0" d="M16.62,6.86c-1.42,0-2.71,1.18-2.71,4.19v3.71h-2.53V4.65h2.53V6.5c0.5-1.14,1.82-2,3.05-2
		c0.36,0,0.8,0.06,1.1,0.16L17.9,7.1C17.54,6.94,17.06,6.86,16.62,6.86z"/>
	<path class="st0" d="M19.12,1.54c0-0.86,0.66-1.54,1.56-1.54c0.92,0,1.6,0.68,1.6,1.54c0,0.88-0.68,1.56-1.6,1.56
		C19.78,3.11,19.12,2.43,19.12,1.54z M19.42,4.65h2.53v10.11h-2.53V4.65z"/>
	<path class="st0" d="M23.83,4.65h2.53v1.16c0.56-0.78,1.66-1.32,3.01-1.32c2.91,0,4.69,2.13,4.69,5.21c0,3.09-1.9,5.21-4.87,5.21
		c-1.16,0-2.25-0.44-2.83-1.16v4.65h-2.53V4.65z M31.55,9.7c0-1.82-1.06-3.03-2.67-3.03c-1.62,0-2.69,1.2-2.69,3.03
		c0,1.82,1.06,3.03,2.69,3.03C30.49,12.73,31.55,11.53,31.55,9.7z"/>
	<path class="st0" d="M34.86,9.7c0-3.01,2.21-5.21,5.27-5.21c3.07,0,5.27,2.21,5.27,5.21c0,3.01-2.21,5.21-5.27,5.21
		C37.06,14.92,34.86,12.71,34.86,9.7z M42.86,9.7c0-1.8-1.1-3.03-2.73-3.03c-1.64,0-2.73,1.22-2.73,3.03c0,1.8,1.08,3.03,2.73,3.03
		C41.75,12.73,42.86,11.51,42.86,9.7z"/>
	<path class="st0" d="M47.17,0.56h2.53v14.2h-2.53V0.56z"/>
	<path class="st0" d="M51.3,1.54C51.3,0.68,51.96,0,52.86,0c0.92,0,1.6,0.68,1.6,1.54c0,0.88-0.68,1.56-1.6,1.56
		C51.96,3.11,51.3,2.43,51.3,1.54z M51.6,4.65h2.53v10.11H51.6V4.65z"/>
	<path class="st0" d="M55.17,11.93l2.06-0.84c0.3,1.02,1.08,1.86,2.35,1.86c0.94,0,1.56-0.5,1.56-1.14c0-1.9-5.51-0.66-5.51-4.49
		c0-1.58,1.38-2.83,3.59-2.83c1.96,0,3.63,1,4.07,2.47l-2.04,0.86c-0.28-0.96-1.16-1.46-1.98-1.46c-0.8,0-1.34,0.34-1.34,0.92
		c0,1.78,5.55,0.36,5.55,4.49c0,1.74-1.56,3.15-3.89,3.15C57.13,14.92,55.67,13.41,55.17,11.93z"/>
	<path class="st0" d="M64.99,7.88h6.46v2.17h-6.46V7.88z"/>
	<path class="st0" d="M74.05,0.72h5.65c2.85,0,4.67,1.68,4.67,4.29c0,2.59-1.82,4.27-4.67,4.27h-2.93v5.47h-2.73V0.72z M79.47,6.94
		c1.36,0,2.19-0.72,2.19-1.92c0-1.22-0.82-1.94-2.19-1.94h-2.69v3.87H79.47z"/>
	<path class="st0" d="M93.58,8.6v6.16h-2.45v-1.46c-0.56,0.98-1.78,1.62-3.03,1.62c-1.98,0-3.37-1.28-3.37-3.01
		c0-1.98,1.5-3.05,4.51-3.37l1.88-0.18v-0.1c0-1.14-0.78-1.84-2-1.84c-1.1,0-1.88,0.68-2,1.76l-2.25-0.4c0.32-2,2.1-3.29,4.25-3.29
		C91.78,4.49,93.58,5.91,93.58,8.6z M91.14,10.39v-0.22l-1.92,0.22c-1.34,0.16-2.02,0.72-2.02,1.44c0,0.7,0.56,1.22,1.48,1.22
		C90.23,13.05,91.14,11.87,91.14,10.39z"/>
	<path class="st0" d="M100.7,6.86c-1.42,0-2.71,1.18-2.71,4.19v3.71h-2.53V4.65h2.53V6.5c0.5-1.14,1.82-2,3.05-2
		c0.36,0,0.8,0.06,1.1,0.16l-0.16,2.45C101.62,6.94,101.14,6.86,100.7,6.86z"/>
	<path class="st0" d="M107.23,10.31l-1.18,1.16v3.29h-2.55V0.56h2.55v7.68l3.81-3.59h3.21l-4.11,3.99l4.43,6.12h-3.05L107.23,10.31z
		"/>
	<path class="st0" d="M115.25,2.15h-2.05V0.72h5.75v1.42h-2.04v5.59h-1.66V2.15z M119.64,0.72h1.82l2,4.67l1.99-4.67h1.82v7.02
		h-1.52V3.79l-1.7,3.95h-1.18l-1.7-3.95v3.95h-1.52V0.72z"/>
</g>
</svg>
