<?xml version="1.0" encoding="utf-8"?>
<!-- Generator: Adobe Illustrator 25.3.0, SVG Export Plug-In . SVG Version: 6.00 Build 0)  -->
<svg version="1.1" id="Layer_1" xmlns="http://www.w3.org/2000/svg" xmlns:xlink="http://www.w3.org/1999/xlink" x="0px" y="0px"
	 viewBox="0 0 17.28 25.53" style="enable-background:new 0 0 17.28 25.53;" xml:space="preserve">
<style type="text/css">
	.st0{fill:#EF0000;}
	.st1{fill:#FFFFFF;}
</style>
<g>
	<g>
		<path class="st0" d="M8.64,0C3.86,0,0,3.86,0,8.64c0,6.23,8.64,16.89,8.64,16.89s8.64-10.66,8.64-16.89C17.28,3.86,13.42,0,8.64,0
			z M8.64,11.88c-1.79,0-3.24-1.45-3.24-3.24c0-1.79,1.45-3.24,3.24-3.24c1.79,0,3.24,1.45,3.24,3.24
			C11.88,10.43,10.43,11.88,8.64,11.88z"/>
		<path class="st1" d="M8.64,11.88c-1.79,0-3.24-1.45-3.24-3.24c0-1.79,1.45-3.24,3.24-3.24c1.79,0,3.24,1.45,3.24,3.24
			C11.88,10.43,10.43,11.88,8.64,11.88z"/>
	</g>
</g>
</svg>
